<svg version="1.1" id="Layer_1" xmlns="http://www.w3.org/2000/svg" xmlns:xlink="http://www.w3.org/1999/xlink" x="0px" y="0px"
	 width="100%" viewBox="0 0 610 593" enable-background="new 0 0 610 593" xml:space="preserve">
<path fill="#FF0000" opacity="1.000000" stroke="none" 
	d="
M1.000000,237.000000 
	C1.000000,158.000015 1.000000,79.500031 1.000000,1.000031 
	C204.333298,1.000021 407.666595,1.000021 610.999878,1.000010 
	C610.999939,198.666580 610.999939,396.333160 611.000000,593.999817 
	C407.666779,593.999878 204.333572,593.999878 1.000183,593.999939 
	C1.000000,475.166656 1.000000,356.333344 1.000000,237.000000 
M249.663422,520.839661 
	C253.740936,526.905457 257.283112,533.429565 262.004486,538.944153 
	C272.704865,551.442322 283.742462,563.676941 295.129456,575.552063 
	C301.253021,581.938232 306.458221,582.045349 312.941559,575.937439 
	C321.770172,567.620117 331.172363,559.440552 338.031525,549.600647 
	C352.832367,528.367798 366.281738,506.184692 380.000519,484.213348 
	C382.459167,480.275696 384.386444,479.960907 388.622681,481.489471 
	C402.580139,486.525848 416.586914,491.628876 430.925476,495.357727 
	C451.972504,500.831116 473.621582,501.726837 495.296967,500.882782 
	C506.420776,500.449646 510.897003,497.191956 510.762726,488.167938 
	C510.515625,471.564423 510.080414,454.885284 508.242432,438.402802 
	C505.681641,415.437653 498.589111,393.546295 488.962952,372.095917 
	C492.090088,370.708771 495.051025,369.267426 498.104645,368.060394 
	C531.609863,354.816742 560.040344,334.152283 585.042480,308.521393 
	C594.038330,299.299316 594.145081,292.785004 585.314026,283.599945 
	C570.492676,268.184387 554.387695,254.138519 536.048462,243.135468 
	C521.632263,234.486145 506.365997,227.253738 491.017944,219.149307 
	C491.369141,218.239655 491.991119,216.377670 492.790558,214.595261 
	C508.198700,180.240982 514.462463,144.096832 514.011169,106.624634 
	C513.869751,94.878075 508.313171,89.061562 496.590668,89.087257 
	C488.940338,89.104019 481.290009,89.645279 473.641815,89.997826 
	C454.011963,90.902672 434.704468,93.824303 416.005798,99.973686 
	C405.397217,103.462509 394.966614,107.492584 384.355377,111.315094 
	C383.465729,109.328407 382.781891,108.011719 382.271881,106.630829 
	C374.693695,86.112602 364.671051,66.828857 351.229034,49.608170 
	C341.624023,37.303165 331.134583,25.638491 320.440948,14.250400 
	C312.945435,6.268118 304.249878,6.287591 297.361298,13.701213 
	C276.500732,36.151779 256.279053,59.094128 242.891083,87.132423 
	C239.261887,94.733009 234.978653,102.021317 230.873459,109.680893 
	C226.440887,107.717598 222.442993,105.787575 218.328796,104.149757 
	C185.471970,91.069809 151.321686,85.651802 116.038795,87.014984 
	C106.343834,87.389565 102.321518,91.523476 102.045387,101.885254 
	C101.387306,126.578476 103.063278,151.083664 109.882622,174.929062 
	C113.818359,188.691269 118.718803,202.177582 123.298859,216.134903 
	C122.485764,216.514496 121.048424,217.313965 119.523872,217.877457 
	C103.426170,223.827332 88.343407,231.778992 74.005302,241.142883 
	C56.104477,252.833527 39.394917,266.001099 25.259495,282.151306 
	C19.355738,288.896515 19.458057,294.293121 24.992273,301.357422 
	C26.529047,303.319061 28.240313,305.163055 30.013670,306.917358 
	C55.575981,332.204956 84.418785,352.616669 117.978806,366.004730 
	C119.439125,366.587280 120.849709,367.294495 122.424248,368.007355 
	C121.847359,369.314026 121.524887,370.061005 121.189369,370.802063 
	C105.972435,404.411072 98.831985,439.708557 99.037285,476.551208 
	C99.140350,495.047943 103.354797,498.997803 121.728798,498.880280 
	C145.481506,498.728363 168.599121,494.738220 191.407364,488.426239 
	C203.978073,484.947388 216.600006,481.653687 228.566330,478.446075 
	C235.621719,492.708740 242.431274,506.474487 249.663422,520.839661 
z"/>
<path fill="#F5E4E1" opacity="1.000000" stroke="none" 
	d="
M249.452118,520.539917 
	C242.431274,506.474487 235.621719,492.708740 228.566330,478.446075 
	C216.600006,481.653687 203.978073,484.947388 191.407364,488.426239 
	C168.599121,494.738220 145.481506,498.728363 121.728798,498.880280 
	C103.354797,498.997803 99.140350,495.047943 99.037285,476.551208 
	C98.831985,439.708557 105.972435,404.411072 121.189369,370.802063 
	C121.524887,370.061005 121.847359,369.314026 122.424248,368.007355 
	C120.849709,367.294495 119.439125,366.587280 117.978806,366.004730 
	C84.418785,352.616669 55.575981,332.204956 30.013670,306.917358 
	C28.240313,305.163055 26.529047,303.319061 24.992273,301.357422 
	C19.458057,294.293121 19.355738,288.896515 25.259495,282.151306 
	C39.394917,266.001099 56.104477,252.833527 74.005302,241.142883 
	C88.343407,231.778992 103.426170,223.827332 119.523872,217.877457 
	C121.048424,217.313965 122.485764,216.514496 123.298859,216.134903 
	C118.718803,202.177582 113.818359,188.691269 109.882622,174.929062 
	C103.063278,151.083664 101.387306,126.578476 102.045387,101.885254 
	C102.321518,91.523476 106.343834,87.389565 116.038795,87.014984 
	C151.321686,85.651802 185.471970,91.069809 218.328796,104.149757 
	C222.442993,105.787575 226.440887,107.717598 230.873459,109.680893 
	C234.978653,102.021317 239.261887,94.733009 242.891083,87.132423 
	C256.279053,59.094128 276.500732,36.151779 297.361298,13.701213 
	C304.249878,6.287591 312.945435,6.268118 320.440948,14.250400 
	C331.134583,25.638491 341.624023,37.303165 351.229034,49.608170 
	C364.671051,66.828857 374.693695,86.112602 382.271881,106.630829 
	C382.781891,108.011719 383.465729,109.328407 384.355377,111.315094 
	C394.966614,107.492584 405.397217,103.462509 416.005798,99.973686 
	C434.704468,93.824303 454.011963,90.902672 473.641815,89.997826 
	C481.290009,89.645279 488.940338,89.104019 496.590668,89.087257 
	C508.313171,89.061562 513.869751,94.878075 514.011169,106.624634 
	C514.462463,144.096832 508.198700,180.240982 492.790558,214.595261 
	C491.991119,216.377670 491.369141,218.239655 491.017944,219.149307 
	C506.365997,227.253738 521.632263,234.486145 536.048462,243.135468 
	C554.387695,254.138519 570.492676,268.184387 585.314026,283.599945 
	C594.145081,292.785004 594.038330,299.299316 585.042480,308.521393 
	C560.040344,334.152283 531.609863,354.816742 498.104645,368.060394 
	C495.051025,369.267426 492.090088,370.708771 488.962952,372.095917 
	C498.589111,393.546295 505.681641,415.437653 508.242432,438.402802 
	C510.080414,454.885284 510.515625,471.564423 510.762726,488.167938 
	C510.897003,497.191956 506.420776,500.449646 495.296967,500.882782 
	C473.621582,501.726837 451.972504,500.831116 430.925476,495.357727 
	C416.586914,491.628876 402.580139,486.525848 388.622681,481.489471 
	C384.386444,479.960907 382.459167,480.275696 380.000519,484.213348 
	C366.281738,506.184692 352.832367,528.367798 338.031525,549.600647 
	C331.172363,559.440552 321.770172,567.620117 312.941559,575.937439 
	C306.458221,582.045349 301.253021,581.938232 295.129456,575.552063 
	C283.742462,563.676941 272.704865,551.442322 262.004486,538.944153 
	C257.283112,533.429565 253.740936,526.905457 249.452118,520.539917 
M269.088196,362.472809 
	C268.340027,363.574249 267.587402,364.672729 266.844269,365.777588 
	C249.178604,392.042633 242.333771,420.795258 247.046555,452.180328 
	C250.969635,478.306213 262.059753,501.307098 277.720581,522.309937 
	C285.983154,533.390991 295.209167,543.554871 305.825409,552.695129 
	C306.717712,551.907410 307.419800,551.449097 307.915222,550.826355 
	C317.137939,539.234375 326.801270,527.956787 335.429962,515.936890 
	C348.253143,498.074066 357.748108,478.520630 361.656067,456.642731 
	C364.097900,442.972504 365.854675,429.064331 361.990906,415.526398 
	C357.205994,398.760895 351.312164,382.309723 345.755371,365.770477 
	C345.265900,364.313538 343.615631,362.095734 342.698151,362.186554 
	C341.072052,362.347626 339.042816,363.666901 338.148468,365.103180 
	C333.753845,372.160522 329.424225,379.282471 325.548706,386.633179 
	C319.976624,397.201813 316.504059,408.309784 317.080627,420.568298 
	C317.705597,433.856384 317.571442,447.178375 317.950409,460.480438 
	C318.217346,469.849335 313.805145,476.584259 306.436218,482.071838 
	C300.338867,476.941162 295.288574,471.299896 295.355103,462.553711 
	C295.441162,451.243927 294.019287,439.746948 295.579437,428.658844 
	C299.430939,401.285919 283.805695,381.262970 271.950195,359.169556 
	C270.853973,360.425293 270.208038,361.165222 269.088196,362.472809 
M367.750000,152.712234 
	C366.025574,121.738205 355.473175,93.986343 337.001068,69.207466 
	C328.364594,57.622288 319.419983,46.266796 310.502136,34.660282 
	C309.629181,35.277493 309.058319,35.593491 308.592316,36.023239 
	C287.249939,55.704372 270.006439,78.410034 259.275116,105.507462 
	C243.729141,144.762314 244.953506,182.881653 268.706635,218.985443 
	C270.025330,220.989807 271.630005,222.806015 273.463776,225.178421 
	C277.354950,218.843765 281.009064,213.290543 284.266541,207.513657 
	C292.242615,193.368652 297.116669,178.592316 296.017303,161.853592 
	C295.026276,146.763763 295.414886,131.560150 295.728424,116.417770 
	C295.881226,109.037239 299.485962,106.005325 306.292786,105.774467 
	C313.826538,105.518967 317.311249,108.858131 317.428680,117.766983 
	C317.650208,134.575180 317.203705,151.392838 317.477844,168.199356 
	C317.582520,174.617584 317.427216,181.681946 319.959045,187.292755 
	C326.355835,201.468460 334.208099,214.987549 341.509491,228.752640 
	C341.596863,228.917404 342.112030,228.855255 342.646088,228.929367 
	C358.576355,206.401093 368.121124,181.686035 367.750000,152.712234 
M143.301819,202.098465 
	C157.208511,233.164597 181.602341,252.508026 212.868347,264.012482 
	C223.530380,267.935608 233.863678,266.766022 243.292236,260.209167 
	C247.521179,257.268250 251.401733,253.829514 255.593994,250.831497 
	C258.345215,248.864029 258.215027,247.212845 256.660797,244.285019 
	C250.048340,231.828476 243.031342,219.493652 237.651382,206.497833 
	C229.696381,187.281845 225.511612,167.169098 227.792252,146.100769 
	C228.678116,137.917282 225.893860,130.843994 218.082352,127.557220 
	C208.324570,123.451530 198.344864,119.299683 188.046844,117.174713 
	C168.532745,113.148056 148.724289,110.546936 129.036545,107.363464 
	C124.605110,106.646904 120.875893,110.647720 121.760918,115.211990 
	C122.870270,120.933266 124.026031,126.645866 125.206177,132.353043 
	C130.023834,155.651215 133.911774,179.190491 143.301819,202.098465 
M130.296402,405.884064 
	C129.034271,409.667633 127.634323,413.411560 126.533470,417.241486 
	C121.323029,435.369049 118.948349,453.685730 122.782585,472.459534 
	C123.372772,475.349304 124.512604,476.374756 127.422165,476.075867 
	C138.176727,474.971130 148.984528,474.308777 159.701202,472.928223 
	C178.099243,470.558197 195.803177,465.542328 212.840652,458.123108 
	C220.450104,454.809479 224.379211,449.471588 223.787262,441.040192 
	C223.647461,439.048889 223.491135,437.022491 223.697250,435.049286 
	C224.764145,424.835358 224.626251,414.256927 227.404312,404.517487 
	C231.352325,390.676514 237.486008,377.460114 242.663101,363.968140 
	C246.276169,354.552155 249.851181,345.121552 253.712814,334.990082 
	C244.267090,330.091644 235.373276,324.834198 225.930725,320.890839 
	C221.991745,319.245850 216.550919,319.278595 212.383438,320.524109 
	C205.132355,322.691254 197.904526,325.669800 191.429123,329.572723 
	C162.003098,347.308685 143.293747,373.861145 130.296402,405.884064 
M466.046509,216.509338 
	C474.826630,201.106659 481.973694,185.092728 484.699158,167.381699 
	C486.445587,156.033020 488.320648,144.704163 490.136780,133.366226 
	C491.251526,126.406654 492.363892,119.446701 493.608521,111.666794 
	C483.854675,112.146835 475.058197,112.435875 466.283325,113.039528 
	C443.147034,114.631149 421.114166,120.303185 399.985199,130.066116 
	C392.271729,133.630249 389.934723,138.984970 390.181396,146.584335 
	C391.037323,172.950027 384.976837,197.761200 373.103638,221.188797 
	C368.011230,231.236862 362.508484,241.076950 357.158844,251.073807 
	C363.282623,254.758667 369.583191,257.885040 375.120392,262.030945 
	C384.408173,268.985046 394.227966,270.018585 404.830109,266.331146 
	C430.995178,257.230896 451.224976,240.738571 466.046509,216.509338 
M455.783813,476.863556 
	C466.670319,477.643982 477.556793,478.424408 488.835510,479.232971 
	C488.528168,472.791534 488.338898,467.329987 487.994934,461.878174 
	C486.596161,439.708221 483.157379,417.927673 474.799896,397.196655 
	C469.496704,384.041931 463.824524,370.646606 453.437164,360.909485 
	C442.198517,350.374298 429.730255,340.929688 416.848816,332.452179 
	C409.281036,327.471741 400.129028,323.668427 391.221497,322.225403 
	C375.614655,319.697083 365.500275,330.568115 355.478333,340.223022 
	C355.640839,340.885406 355.660675,341.234283 355.808350,341.516205 
	C356.193054,342.250397 356.618195,342.964935 357.054596,343.670319 
	C376.571747,375.217682 388.617706,408.871948 386.299377,446.637360 
	C385.949646,452.334198 388.593353,456.359406 393.804413,459.015961 
	C413.048584,468.826477 433.657471,473.826660 455.783813,476.863556 
M276.864990,261.364105 
	C262.639191,275.961304 245.758163,286.594269 225.551270,294.675842 
	C266.904724,308.545959 291.353149,337.193939 305.332611,376.935669 
	C309.859283,368.992096 315.079712,362.350616 317.660828,354.806152 
	C324.143982,335.856262 336.806702,322.726929 353.656311,313.084290 
	C365.479645,306.318054 377.541351,299.968384 390.140869,293.080505 
	C349.794159,280.083099 321.975098,254.099884 306.386932,213.744827 
	C299.217072,232.067215 290.175110,247.656021 276.864990,261.364105 
M146.126175,246.365784 
	C140.187881,241.154541 134.209290,235.238907 125.425743,239.225433 
	C115.928772,243.535767 106.358887,247.943359 97.570236,253.494949 
	C84.926117,261.481934 72.946632,270.523132 60.709373,279.151123 
	C55.728020,282.663300 50.814625,286.271851 45.670422,289.980682 
	C69.133774,314.786072 95.944099,333.618439 127.781700,344.915009 
	C132.505814,346.591187 136.789642,345.762756 140.732162,342.320038 
	C153.648087,331.041534 166.709885,319.930145 179.693237,308.728638 
	C180.710022,307.851440 181.554077,306.774078 183.047256,305.183960 
	C180.058258,305.183960 178.082138,305.186066 176.106003,305.183655 
	C160.618607,305.164856 145.129456,305.276825 129.644592,305.068604 
	C122.239288,304.969055 118.320831,300.965698 118.056618,294.111359 
	C117.800941,287.478760 121.184540,283.955872 128.827652,283.109406 
	C131.302032,282.835358 133.814301,282.832458 136.309433,282.828125 
	C150.464920,282.803558 164.620453,282.816132 178.775970,282.816040 
	C182.836578,282.816010 186.897202,282.816040 191.065369,282.816040 
	C176.003189,270.624573 161.320938,258.740631 146.126175,246.365784 
M497.201813,343.770935 
	C523.403076,332.485535 545.769775,315.760864 565.978943,295.591644 
	C563.086487,292.898804 560.417542,290.392914 557.725952,287.911560 
	C538.217834,269.927063 516.401001,255.479401 491.932983,245.135132 
	C481.314362,240.645935 476.370148,241.884537 468.259796,250.022202 
	C463.448486,254.849762 458.372253,259.450317 453.109558,263.781647 
	C446.408478,269.296814 439.398407,274.436523 432.521515,279.738098 
	C432.532410,280.163147 432.543274,280.588226 432.554138,281.013275 
	C448.000061,281.613953 463.447510,282.178955 478.890625,282.845062 
	C482.029846,282.980499 485.215912,283.216858 488.267670,283.905914 
	C492.456543,284.851715 494.664917,287.781769 495.090363,292.090332 
	C495.937134,300.665497 491.674164,305.025574 481.625824,305.133789 
	C465.965454,305.302490 450.302002,305.182526 434.639832,305.184662 
	C431.057831,305.185150 427.475830,305.184723 423.773071,305.184723 
	C423.976654,306.033569 423.945251,306.457458 424.135925,306.618683 
	C440.159821,320.169250 456.086029,333.840912 472.370056,347.072083 
	C474.697784,348.963440 478.959534,349.778870 481.979401,349.219635 
	C486.964081,348.296509 491.666016,345.846527 497.201813,343.770935 
z"/>
<path fill="#FF0D02" opacity="1.000000" stroke="none" 
	d="
M269.325134,362.188965 
	C270.208038,361.165222 270.853973,360.425293 271.950195,359.169556 
	C283.805695,381.262970 299.430939,401.285919 295.579437,428.658844 
	C294.019287,439.746948 295.441162,451.243927 295.355103,462.553711 
	C295.288574,471.299896 300.338867,476.941162 306.436218,482.071838 
	C313.805145,476.584259 318.217346,469.849335 317.950409,460.480438 
	C317.571442,447.178375 317.705597,433.856384 317.080627,420.568298 
	C316.504059,408.309784 319.976624,397.201813 325.548706,386.633179 
	C329.424225,379.282471 333.753845,372.160522 338.148468,365.103180 
	C339.042816,363.666901 341.072052,362.347626 342.698151,362.186554 
	C343.615631,362.095734 345.265900,364.313538 345.755371,365.770477 
	C351.312164,382.309723 357.205994,398.760895 361.990906,415.526398 
	C365.854675,429.064331 364.097900,442.972504 361.656067,456.642731 
	C357.748108,478.520630 348.253143,498.074066 335.429962,515.936890 
	C326.801270,527.956787 317.137939,539.234375 307.915222,550.826355 
	C307.419800,551.449097 306.717712,551.907410 305.825409,552.695129 
	C295.209167,543.554871 285.983154,533.390991 277.720581,522.309937 
	C262.059753,501.307098 250.969635,478.306213 247.046555,452.180328 
	C242.333771,420.795258 249.178604,392.042633 266.844269,365.777588 
	C267.587402,364.672729 268.340027,363.574249 269.325134,362.188965 
z"/>
<path fill="#FF0D02" opacity="1.000000" stroke="none" 
	d="
M367.771118,153.177551 
	C368.121124,181.686035 358.576355,206.401093 342.646088,228.929367 
	C342.112030,228.855255 341.596863,228.917404 341.509491,228.752640 
	C334.208099,214.987549 326.355835,201.468460 319.959045,187.292755 
	C317.427216,181.681946 317.582520,174.617584 317.477844,168.199356 
	C317.203705,151.392838 317.650208,134.575180 317.428680,117.766983 
	C317.311249,108.858131 313.826538,105.518967 306.292786,105.774467 
	C299.485962,106.005325 295.881226,109.037239 295.728424,116.417770 
	C295.414886,131.560150 295.026276,146.763763 296.017303,161.853592 
	C297.116669,178.592316 292.242615,193.368652 284.266541,207.513657 
	C281.009064,213.290543 277.354950,218.843765 273.463776,225.178421 
	C271.630005,222.806015 270.025330,220.989807 268.706635,218.985443 
	C244.953506,182.881653 243.729141,144.762314 259.275116,105.507462 
	C270.006439,78.410034 287.249939,55.704372 308.592316,36.023239 
	C309.058319,35.593491 309.629181,35.277493 310.502136,34.660282 
	C319.419983,46.266796 328.364594,57.622288 337.001068,69.207466 
	C355.473175,93.986343 366.025574,121.738205 367.771118,153.177551 
z"/>
<path fill="#FF0301" opacity="1.000000" stroke="none" 
	d="
M143.169067,201.737411 
	C133.911774,179.190491 130.023834,155.651215 125.206177,132.353043 
	C124.026031,126.645866 122.870270,120.933266 121.760918,115.211990 
	C120.875893,110.647720 124.605110,106.646904 129.036545,107.363464 
	C148.724289,110.546936 168.532745,113.148056 188.046844,117.174713 
	C198.344864,119.299683 208.324570,123.451530 218.082352,127.557220 
	C225.893860,130.843994 228.678116,137.917282 227.792252,146.100769 
	C225.511612,167.169098 229.696381,187.281845 237.651382,206.497833 
	C243.031342,219.493652 250.048340,231.828476 256.660797,244.285019 
	C258.215027,247.212845 258.345215,248.864029 255.593994,250.831497 
	C251.401733,253.829514 247.521179,257.268250 243.292236,260.209167 
	C233.863678,266.766022 223.530380,267.935608 212.868347,264.012482 
	C181.602341,252.508026 157.208511,233.164597 143.169067,201.737411 
z"/>
<path fill="#FF0301" opacity="1.000000" stroke="none" 
	d="
M130.474319,405.539185 
	C143.293747,373.861145 162.003098,347.308685 191.429123,329.572723 
	C197.904526,325.669800 205.132355,322.691254 212.383438,320.524109 
	C216.550919,319.278595 221.991745,319.245850 225.930725,320.890839 
	C235.373276,324.834198 244.267090,330.091644 253.712814,334.990082 
	C249.851181,345.121552 246.276169,354.552155 242.663101,363.968140 
	C237.486008,377.460114 231.352325,390.676514 227.404312,404.517487 
	C224.626251,414.256927 224.764145,424.835358 223.697250,435.049286 
	C223.491135,437.022491 223.647461,439.048889 223.787262,441.040192 
	C224.379211,449.471588 220.450104,454.809479 212.840652,458.123108 
	C195.803177,465.542328 178.099243,470.558197 159.701202,472.928223 
	C148.984528,474.308777 138.176727,474.971130 127.422165,476.075867 
	C124.512604,476.374756 123.372772,475.349304 122.782585,472.459534 
	C118.948349,453.685730 121.323029,435.369049 126.533470,417.241486 
	C127.634323,413.411560 129.034271,409.667633 130.474319,405.539185 
z"/>
<path fill="#FF0301" opacity="1.000000" stroke="none" 
	d="
M465.882507,216.836426 
	C451.224976,240.738571 430.995178,257.230896 404.830109,266.331146 
	C394.227966,270.018585 384.408173,268.985046 375.120392,262.030945 
	C369.583191,257.885040 363.282623,254.758667 357.158844,251.073807 
	C362.508484,241.076950 368.011230,231.236862 373.103638,221.188797 
	C384.976837,197.761200 391.037323,172.950027 390.181396,146.584335 
	C389.934723,138.984970 392.271729,133.630249 399.985199,130.066116 
	C421.114166,120.303185 443.147034,114.631149 466.283325,113.039528 
	C475.058197,112.435875 483.854675,112.146835 493.608521,111.666794 
	C492.363892,119.446701 491.251526,126.406654 490.136780,133.366226 
	C488.320648,144.704163 486.445587,156.033020 484.699158,167.381699 
	C481.973694,185.092728 474.826630,201.106659 465.882507,216.836426 
z"/>
<path fill="#FF0301" opacity="1.000000" stroke="none" 
	d="
M455.332031,476.816254 
	C433.657471,473.826660 413.048584,468.826477 393.804413,459.015961 
	C388.593353,456.359406 385.949646,452.334198 386.299377,446.637360 
	C388.617706,408.871948 376.571747,375.217682 357.054596,343.670319 
	C356.618195,342.964935 356.193054,342.250397 355.808350,341.516205 
	C355.660675,341.234283 355.640839,340.885406 355.478333,340.223022 
	C365.500275,330.568115 375.614655,319.697083 391.221497,322.225403 
	C400.129028,323.668427 409.281036,327.471741 416.848816,332.452179 
	C429.730255,340.929688 442.198517,350.374298 453.437164,360.909485 
	C463.824524,370.646606 469.496704,384.041931 474.799896,397.196655 
	C483.157379,417.927673 486.596161,439.708221 487.994934,461.878174 
	C488.338898,467.329987 488.528168,472.791534 488.835510,479.232971 
	C477.556793,478.424408 466.670319,477.643982 455.332031,476.816254 
z"/>
<path fill="#FF0D02" opacity="1.000000" stroke="none" 
	d="
M277.113190,261.109589 
	C290.175110,247.656021 299.217072,232.067215 306.386932,213.744827 
	C321.975098,254.099884 349.794159,280.083099 390.140869,293.080505 
	C377.541351,299.968384 365.479645,306.318054 353.656311,313.084290 
	C336.806702,322.726929 324.143982,335.856262 317.660828,354.806152 
	C315.079712,362.350616 309.859283,368.992096 305.332611,376.935669 
	C291.353149,337.193939 266.904724,308.545959 225.551270,294.675842 
	C245.758163,286.594269 262.639191,275.961304 277.113190,261.109589 
z"/>
<path fill="#FF0D02" opacity="1.000000" stroke="none" 
	d="
M146.382446,246.611237 
	C161.320938,258.740631 176.003189,270.624573 191.065369,282.816040 
	C186.897202,282.816040 182.836578,282.816010 178.775970,282.816040 
	C164.620453,282.816132 150.464920,282.803558 136.309433,282.828125 
	C133.814301,282.832458 131.302032,282.835358 128.827652,283.109406 
	C121.184540,283.955872 117.800941,287.478760 118.056618,294.111359 
	C118.320831,300.965698 122.239288,304.969055 129.644592,305.068604 
	C145.129456,305.276825 160.618607,305.164856 176.106003,305.183655 
	C178.082138,305.186066 180.058258,305.183960 183.047256,305.183960 
	C181.554077,306.774078 180.710022,307.851440 179.693237,308.728638 
	C166.709885,319.930145 153.648087,331.041534 140.732162,342.320038 
	C136.789642,345.762756 132.505814,346.591187 127.781700,344.915009 
	C95.944099,333.618439 69.133774,314.786072 45.670422,289.980682 
	C50.814625,286.271851 55.728020,282.663300 60.709373,279.151123 
	C72.946632,270.523132 84.926117,261.481934 97.570236,253.494949 
	C106.358887,247.943359 115.928772,243.535767 125.425743,239.225433 
	C134.209290,235.238907 140.187881,241.154541 146.382446,246.611237 
z"/>
<path fill="#FF0D02" opacity="1.000000" stroke="none" 
	d="
M496.844482,343.905487 
	C491.666016,345.846527 486.964081,348.296509 481.979401,349.219635 
	C478.959534,349.778870 474.697784,348.963440 472.370056,347.072083 
	C456.086029,333.840912 440.159821,320.169250 424.135925,306.618683 
	C423.945251,306.457458 423.976654,306.033569 423.773071,305.184723 
	C427.475830,305.184723 431.057831,305.185150 434.639832,305.184662 
	C450.302002,305.182526 465.965454,305.302490 481.625824,305.133789 
	C491.674164,305.025574 495.937134,300.665497 495.090363,292.090332 
	C494.664917,287.781769 492.456543,284.851715 488.267670,283.905914 
	C485.215912,283.216858 482.029846,282.980499 478.890625,282.845062 
	C463.447510,282.178955 448.000061,281.613953 432.554138,281.013275 
	C432.543274,280.588226 432.532410,280.163147 432.521515,279.738098 
	C439.398407,274.436523 446.408478,269.296814 453.109558,263.781647 
	C458.372253,259.450317 463.448486,254.849762 468.259796,250.022202 
	C476.370148,241.884537 481.314362,240.645935 491.932983,245.135132 
	C516.401001,255.479401 538.217834,269.927063 557.725952,287.911560 
	C560.417542,290.392914 563.086487,292.898804 565.978943,295.591644 
	C545.769775,315.760864 523.403076,332.485535 496.844482,343.905487 
z"/>
</svg>