<svg version="1.1" id="Layer_1" xmlns="http://www.w3.org/2000/svg" xmlns:xlink="http://www.w3.org/1999/xlink" x="0px" y="0px"
	 width="100%" viewBox="0 0 467 464" enable-background="new 0 0 467 464" xml:space="preserve">
<path fill="#FF3000" opacity="1.000000" stroke="none" 
	d="
M322.000000,465.000000 
	C214.666672,465.000000 107.833336,465.000000 1.000000,465.000000 
	C1.000000,310.333344 1.000000,155.666672 1.000000,1.000000 
	C156.666672,1.000000 312.333344,1.000000 468.000000,1.000000 
	C468.000000,155.666672 468.000000,310.333344 468.000000,465.000000 
	C419.500000,465.000000 371.000000,465.000000 322.000000,465.000000 
M302.861389,214.219421 
	C313.410614,209.983688 322.116241,203.147278 330.112518,195.213882 
	C333.262024,192.089157 333.368866,189.681885 330.172913,186.422913 
	C321.084717,177.155457 310.758820,169.838791 298.223602,165.266693 
	C298.743225,163.935226 299.105865,162.866867 299.567902,161.843414 
	C304.533539,150.845184 306.185516,139.225067 306.261963,127.267654 
	C306.289734,122.923920 304.660889,120.874680 300.084442,120.879501 
	C288.307983,120.891891 276.849518,122.347084 265.977905,127.172234 
	C264.848755,127.673386 263.602783,127.911301 262.262756,128.316147 
	C257.817047,115.566383 250.555481,105.142540 241.299973,95.994080 
	C238.178543,92.908768 235.271942,92.638763 232.366638,95.995430 
	C228.233231,100.771019 223.796600,105.360031 220.254745,110.550896 
	C216.551361,115.978455 213.754013,122.024208 210.507965,127.894928 
	C199.137405,122.339050 186.981094,120.028763 174.322128,120.068062 
	C167.701324,120.088615 167.002396,120.783821 166.934540,127.610939 
	C166.810471,140.093124 169.077667,152.102554 174.535660,163.775986 
	C162.988968,167.941483 153.164612,174.352280 144.449524,182.501022 
	C137.819229,188.700439 137.871368,190.063324 144.491867,196.337524 
	C153.028976,204.428085 162.621567,210.864212 173.923660,215.059372 
	C168.266251,227.034256 165.839096,239.339645 165.988724,252.168411 
	C166.056244,257.958557 167.235825,259.342590 173.029938,259.294769 
	C177.677399,259.256439 182.418610,259.137085 186.943222,258.204620 
	C194.662903,256.613708 202.245331,254.356964 210.034088,252.341431 
	C210.243805,252.802277 210.560425,253.380539 210.778152,253.993896 
	C214.876785,265.539856 221.789093,275.225281 230.478851,283.720520 
	C234.796021,287.941010 235.927490,287.948700 240.298431,283.566956 
	C242.881805,280.977173 245.626419,278.427612 247.648621,275.422638 
	C252.535934,268.160156 257.041931,260.641022 261.904236,252.902985 
	C262.237854,253.011459 263.194489,253.227493 264.070801,253.621933 
	C274.740051,258.424438 285.949341,260.324585 297.601074,260.091003 
	C304.680420,259.949066 305.218597,259.511688 305.265015,252.340027 
	C305.345734,239.871384 302.925537,227.899094 297.722351,216.477219 
	C299.446747,215.746231 300.821838,215.163345 302.861389,214.219421 
M212.919571,299.384003 
	C205.226501,310.107330 207.684616,321.731354 210.550323,333.359711 
	C208.236526,334.062347 206.278305,334.251404 204.833099,335.212158 
	C203.441711,336.137085 202.580688,337.859833 201.486649,339.232056 
	C203.147507,339.220154 205.104858,339.775696 206.414413,339.091461 
	C210.575424,336.917328 213.339844,337.118561 215.186081,342.035034 
	C216.699402,346.065002 219.026398,349.783020 220.701462,353.761932 
	C221.369568,355.348907 221.295898,357.260956 221.485794,359.032959 
	C221.686676,360.907410 221.799332,362.791260 221.950546,364.671021 
	C223.195419,362.938934 225.178131,361.333069 225.501526,359.443268 
	C225.921677,356.988068 225.463852,354.144196 224.585434,351.762085 
	C223.328903,348.354645 221.248932,345.260040 219.721115,341.939606 
	C218.951630,340.267273 218.623978,338.391632 218.071091,336.521881 
	C222.723755,335.959625 226.641220,335.486206 230.558685,335.012787 
	C230.481201,334.369568 230.403702,333.726318 230.326218,333.083099 
	C226.409744,332.815948 222.474411,332.696472 218.587143,332.200470 
	C217.251205,332.029999 215.283844,331.213898 214.882584,330.191376 
	C211.457352,321.463013 211.173431,312.645416 215.478317,304.096039 
	C218.027985,299.032440 221.707733,297.821259 227.152863,299.801575 
	C229.062332,300.496033 230.941330,301.274292 232.834259,302.014252 
	C233.201782,301.491486 233.569305,300.968750 233.936829,300.445984 
	C232.310822,299.018463 230.910858,296.973907 229.016159,296.279877 
	C223.473236,294.249481 217.910339,293.796021 212.919571,299.384003 
M244.811203,334.222046 
	C244.336426,334.378571 243.760345,334.414062 243.404160,334.712280 
	C241.709320,336.131134 238.418930,338.396088 238.683746,338.962067 
	C240.555695,342.962646 242.838165,339.363098 244.647324,338.531952 
	C248.082993,336.953674 250.103806,337.465912 251.631592,341.042725 
	C253.395798,345.173157 255.733597,349.061218 257.447327,353.209442 
	C258.221924,355.084442 258.116272,357.330841 258.361359,359.414459 
	C258.566376,361.157379 258.700623,362.908600 258.866211,364.656158 
	C260.090057,363.113525 261.657471,361.723145 262.429718,359.980347 
	C263.053894,358.571716 263.250061,356.534943 262.711365,355.131866 
	C261.106842,350.952972 258.996490,346.971191 257.186310,342.867126 
	C256.308746,340.877441 255.660263,338.786743 254.837509,336.549988 
	C259.707825,335.959930 263.621124,335.485809 267.534393,335.011719 
	C267.466095,334.369080 267.397766,333.726410 267.329468,333.083771 
	C263.406250,332.818024 259.454407,332.748718 255.574738,332.183746 
	C254.149796,331.976166 252.136887,330.885803 251.685822,329.704285 
	C248.603958,321.631561 248.320023,313.422394 251.846375,305.369446 
	C254.636490,298.997803 258.682587,297.500824 265.186707,300.177551 
	C266.678497,300.791504 268.155212,301.442139 269.638855,302.075867 
	C270.029297,301.668976 270.419739,301.262085 270.810181,300.855164 
	C269.492554,299.409088 268.445923,297.408600 266.811890,296.609863 
	C258.298889,292.448761 250.889160,295.308380 247.181824,304.046906 
	C243.693130,312.270050 244.444962,320.628021 246.504593,329.067413 
	C246.867477,330.554352 245.940414,332.356140 244.811203,334.222046 
M146.114090,363.650055 
	C150.200745,360.555267 152.236221,356.400024 151.021820,351.424866 
	C149.813400,346.474152 145.192749,345.479889 140.970078,344.415741 
	C139.205063,343.970917 137.337540,343.944366 135.557480,343.545410 
	C130.872223,342.495178 126.155838,341.525970 121.557968,340.165802 
	C118.864853,339.369049 117.838509,337.319031 119.714340,334.747223 
	C124.934921,327.589691 131.771393,323.098602 141.346741,321.791321 
	C141.346741,325.474365 141.346741,328.677429 141.346741,331.880493 
	C141.987900,331.981995 142.629059,332.083496 143.270218,332.184998 
	C143.924484,328.311584 144.818436,324.451172 145.029907,320.553772 
	C145.072006,319.778076 142.284576,317.904419 141.170898,318.157928 
	C131.042923,320.463654 121.986214,324.902008 115.740814,333.542633 
	C112.758034,337.669373 113.876503,341.779388 118.530891,343.859131 
	C122.104553,345.455902 126.113487,346.124542 129.970169,347.029907 
	C134.474915,348.087402 139.135315,348.608521 143.518692,350.015137 
	C146.856827,351.086365 148.015076,353.828308 146.096680,357.219543 
	C143.573135,361.680511 134.565262,364.961823 129.791214,363.378876 
	C128.556519,362.969482 127.058067,363.355621 125.680779,363.376312 
	C126.746475,364.708893 127.570549,366.821777 128.919540,367.239502 
	C134.894455,369.089630 140.357239,367.111938 146.114090,363.650055 
M198.729706,353.318054 
	C199.633301,351.453003 200.536880,349.587921 201.440475,347.722870 
	C201.034271,347.523224 200.628082,347.323578 200.221878,347.123901 
	C197.129440,350.000671 194.341217,353.328644 190.881714,355.660950 
	C183.506851,360.632996 175.409393,357.631439 173.578293,349.715149 
	C172.610443,345.530945 171.525681,341.372955 170.442673,337.216431 
	C169.476669,333.508972 167.274429,332.823669 164.757690,335.929413 
	C159.997208,341.804047 157.385544,348.609467 158.659729,356.293884 
	C158.977997,358.213165 160.682617,359.902588 161.750046,361.697662 
	C163.446869,360.554718 165.237976,359.525665 166.806137,358.227325 
	C167.790283,357.412537 168.439636,356.193298 169.141129,355.282837 
	C171.859497,357.196167 174.166870,359.551514 176.967545,360.655762 
	C185.748276,364.117981 192.334381,359.756531 198.729706,353.318054 
M353.315277,352.463013 
	C351.524231,348.869537 349.688873,345.297241 347.959808,341.674225 
	C347.017059,339.698730 346.254517,337.637207 345.410675,335.614502 
	C344.109039,337.538971 342.537445,339.338379 341.573364,341.419250 
	C340.335388,344.091309 339.585388,346.989441 338.625183,349.790192 
	C338.038361,349.699005 337.451538,349.607849 336.864716,349.516693 
	C336.864716,344.101166 336.864716,338.685669 336.864716,332.283844 
	C332.494843,337.019928 333.039734,357.081329 337.457397,361.447632 
	C339.757111,356.633545 341.900330,352.147095 344.237946,347.253754 
	C345.644165,349.712799 346.684662,351.936218 348.084106,353.904419 
	C352.419159,360.001343 359.151886,360.384857 360.630554,354.537506 
	C358.425842,353.972046 356.217926,353.405762 353.315277,352.463013 
M308.610504,347.031860 
	C308.942749,348.481873 308.836823,350.313080 309.697968,351.302887 
	C311.519073,353.396027 313.837585,356.470551 315.966614,356.482178 
	C318.076935,356.493652 321.206421,353.617065 322.078705,351.319824 
	C323.238525,348.265259 322.919220,344.530640 322.739014,341.114380 
	C322.491608,336.423706 318.662964,334.004822 314.994812,333.480133 
	C313.441559,333.257935 310.854980,337.376923 309.461121,339.919220 
	C308.503448,341.665955 308.790924,344.095398 308.610504,347.031860 
M291.515991,335.932983 
	C288.315674,336.027100 285.104706,336.005859 281.922821,336.299713 
	C281.165802,336.369629 280.292236,337.369354 279.836945,338.153198 
	C277.202942,342.687897 279.457642,355.540588 284.387787,360.493683 
	C284.746002,358.244080 285.238129,356.690460 285.183319,355.156372 
	C285.088684,352.507019 284.440002,349.872528 284.406860,347.226990 
	C284.336029,341.572784 285.821259,340.246643 291.413574,339.910614 
	C293.818207,339.766144 296.193054,339.125641 298.581421,338.710480 
	C298.539093,338.084351 298.496765,337.458191 298.454468,336.832031 
	C296.427002,336.530457 294.399567,336.228882 291.515991,335.932983 
z"/>
<path fill="#F2E6E3" opacity="1.000000" stroke="none" 
	d="
M302.529144,214.399948 
	C300.821838,215.163345 299.446747,215.746231 297.722351,216.477219 
	C302.925537,227.899094 305.345734,239.871384 305.265015,252.340027 
	C305.218597,259.511688 304.680420,259.949066 297.601074,260.091003 
	C285.949341,260.324585 274.740051,258.424438 264.070801,253.621933 
	C263.194489,253.227493 262.237854,253.011459 261.904236,252.902985 
	C257.041931,260.641022 252.535934,268.160156 247.648621,275.422638 
	C245.626419,278.427612 242.881805,280.977173 240.298431,283.566956 
	C235.927490,287.948700 234.796021,287.941010 230.478851,283.720520 
	C221.789093,275.225281 214.876785,265.539856 210.778152,253.993896 
	C210.560425,253.380539 210.243805,252.802277 210.034088,252.341431 
	C202.245331,254.356964 194.662903,256.613708 186.943222,258.204620 
	C182.418610,259.137085 177.677399,259.256439 173.029938,259.294769 
	C167.235825,259.342590 166.056244,257.958557 165.988724,252.168411 
	C165.839096,239.339645 168.266251,227.034256 173.923660,215.059372 
	C162.621567,210.864212 153.028976,204.428085 144.491867,196.337524 
	C137.871368,190.063324 137.819229,188.700439 144.449524,182.501022 
	C153.164612,174.352280 162.988968,167.941483 174.535660,163.775986 
	C169.077667,152.102554 166.810471,140.093124 166.934540,127.610939 
	C167.002396,120.783821 167.701324,120.088615 174.322128,120.068062 
	C186.981094,120.028763 199.137405,122.339050 210.507965,127.894928 
	C213.754013,122.024208 216.551361,115.978455 220.254745,110.550896 
	C223.796600,105.360031 228.233231,100.771019 232.366638,95.995430 
	C235.271942,92.638763 238.178543,92.908768 241.299973,95.994080 
	C250.555481,105.142540 257.817047,115.566383 262.262756,128.316147 
	C263.602783,127.911301 264.848755,127.673386 265.977905,127.172234 
	C276.849518,122.347084 288.307983,120.891891 300.084442,120.879501 
	C304.660889,120.874680 306.289734,122.923920 306.261963,127.267654 
	C306.185516,139.225067 304.533539,150.845184 299.567902,161.843414 
	C299.105865,162.866867 298.743225,163.935226 298.223602,165.266693 
	C310.758820,169.838791 321.084717,177.155457 330.172913,186.422913 
	C333.368866,189.681885 333.262024,192.089157 330.112518,195.213882 
	C322.116241,203.147278 313.410614,209.983688 302.529144,214.399948 
M248.231384,116.340538 
	C244.616333,111.659958 241.001297,106.979370 237.352737,102.255394 
	C217.645081,120.252617 209.118042,146.077301 224.868011,166.893951 
	C229.178955,160.066452 233.606903,153.529922 232.427963,144.802521 
	C231.897354,140.874435 232.324219,136.815384 232.338867,132.815842 
	C232.349289,129.965164 232.044586,126.433640 235.982132,126.360748 
	C240.371872,126.279488 239.835907,130.077728 239.867447,133.033218 
	C239.917221,137.698898 240.271957,142.405746 239.796738,147.023010 
	C238.904938,155.687943 244.578262,161.386810 248.050095,168.527390 
	C259.694336,152.578003 259.738159,135.401520 248.231384,116.340538 
M255.157669,231.643021 
	C253.068130,225.432709 250.978592,219.222397 248.889053,213.012085 
	C248.329025,213.097000 247.768997,213.181900 247.208954,213.266800 
	C243.763565,219.660660 238.885712,225.362671 239.776520,233.621216 
	C240.327087,238.725479 240.177643,243.967941 239.690659,249.086349 
	C239.527084,250.805710 237.351883,252.333679 236.096130,253.949127 
	C234.847366,252.307617 232.706253,250.760147 232.521393,249.006485 
	C232.017700,244.228027 231.835388,239.297729 232.444260,234.545273 
	C233.601349,225.513901 228.011093,219.359451 224.401886,211.948166 
	C208.349670,232.601013 215.005325,258.833984 235.926682,277.734009 
	C247.397308,264.750366 257.359802,251.255478 255.157669,231.643021 
M285.941193,212.601593 
	C281.490326,209.177795 277.350922,205.208466 272.519958,202.450424 
	C264.003448,197.588272 259.766205,198.596939 252.484543,205.857880 
	C259.476196,216.889587 264.071289,228.642319 263.014404,242.081360 
	C262.924652,243.222946 263.883911,245.055710 264.877045,245.579834 
	C275.060669,250.954361 286.087952,252.424042 297.770325,252.729507 
	C297.459015,238.109833 295.234070,224.699554 285.941193,212.601593 
M209.187622,141.558990 
	C210.368423,136.755600 208.308182,134.070633 203.703659,132.811539 
	C201.313675,132.158005 199.093292,130.766769 196.683380,130.325607 
	C189.484619,129.007858 182.230103,127.994720 174.997360,126.862617 
	C174.446426,127.436829 173.895508,128.011047 173.344589,128.585266 
	C175.287567,137.412521 176.603027,146.439926 179.337708,155.014709 
	C182.516449,164.981934 189.114883,172.604996 198.672867,177.460693 
	C208.374146,182.389252 211.534790,182.055099 219.967270,174.548019 
	C213.759140,164.771988 209.113815,154.413559 209.187622,141.558990 
M295.929596,150.146515 
	C297.044434,143.183640 298.159241,136.220764 299.378296,128.606766 
	C286.776398,128.431885 275.836670,130.278320 265.726257,135.770203 
	C264.770721,136.289246 264.354095,138.590958 264.403259,140.040756 
	C264.721466,149.424164 262.444946,158.155853 258.163910,166.419312 
	C256.587616,169.461945 254.863892,172.428223 253.092621,175.637238 
	C255.384750,176.959457 257.569122,177.883591 259.346588,179.313538 
	C263.266052,182.466766 267.035461,181.802139 271.343750,180.031982 
	C284.644501,174.567123 291.715302,164.090134 295.929596,150.146515 
M208.783035,228.441971 
	C211.875320,220.444504 214.967606,212.447037 218.185211,204.125458 
	C215.731171,202.747391 212.783051,200.846756 209.620285,199.422852 
	C208.117126,198.746078 206.063492,198.455261 204.499329,198.877991 
	C185.336975,204.056732 169.311493,231.992172 174.246857,251.771835 
	C184.711334,251.335129 194.970505,249.885605 204.691986,245.487320 
	C207.370773,244.275375 208.250992,242.690872 208.062988,239.735397 
	C207.843094,236.279037 208.388596,232.774017 208.783035,228.441971 
M240.094452,210.536911 
	C243.426865,199.100571 253.912659,195.680969 264.502930,189.825897 
	C250.043671,185.257416 241.224747,176.268631 235.993179,162.987137 
	C230.986572,176.509827 221.957489,185.116745 208.810593,190.331284 
	C222.597687,194.990005 230.888290,204.325073 235.698792,218.179108 
	C237.598923,214.869064 238.661728,213.017670 240.094452,210.536911 
M166.301620,175.688293 
	C160.243225,179.955963 154.184830,184.223633 147.770508,188.742004 
	C156.332443,197.691376 165.370392,203.703506 175.862152,207.470016 
	C176.877274,207.834427 178.602753,207.585526 179.418930,206.915421 
	C184.444855,202.789078 189.304260,198.459915 194.527878,193.930405 
	C188.788040,193.930405 183.188431,193.904282 177.589218,193.941574 
	C174.840927,193.959869 172.339600,193.439377 172.327179,190.109741 
	C172.314301,186.663177 175.052231,186.418884 177.661804,186.339630 
	C178.992477,186.299194 180.325241,186.324921 181.657059,186.324646 
	C186.660400,186.323639 191.663757,186.324249 197.538406,186.324249 
	C192.321991,182.383453 187.844589,179.501938 183.970291,175.960648 
	C177.624008,170.159836 177.787003,169.973953 170.016266,173.657547 
	C168.964966,174.155884 167.951294,174.733627 166.301620,175.688293 
M282.192596,182.773712 
	C280.871765,183.613632 279.550934,184.453568 278.230103,185.293488 
	C283.914490,186.331924 289.322906,186.311615 294.731018,186.340546 
	C297.410309,186.354874 300.055298,186.849411 299.946808,190.240036 
	C299.841003,193.547089 297.272919,193.965225 294.544220,193.945709 
	C287.961853,193.898590 281.378937,193.930420 275.280426,193.930420 
	C280.854309,198.660141 286.428162,203.458405 292.107666,208.128143 
	C292.874359,208.758499 294.322876,209.226456 295.201263,208.952866 
	C306.350647,205.480072 315.501312,198.919922 323.897675,190.717224 
	C316.121246,183.023575 307.834747,177.344650 298.312958,173.395584 
	C295.234680,172.118896 293.221985,172.541885 290.975769,175.078964 
	C288.574371,177.791336 285.539703,179.943008 282.192596,182.773712 
z"/>
<path fill="#1A0500" opacity="1.000000" stroke="none" 
	d="
M213.158630,299.109589 
	C217.910339,293.796021 223.473236,294.249481 229.016159,296.279877 
	C230.910858,296.973907 232.310822,299.018463 233.936829,300.445984 
	C233.569305,300.968750 233.201782,301.491486 232.834259,302.014252 
	C230.941330,301.274292 229.062332,300.496033 227.152863,299.801575 
	C221.707733,297.821259 218.027985,299.032440 215.478317,304.096039 
	C211.173431,312.645416 211.457352,321.463013 214.882584,330.191376 
	C215.283844,331.213898 217.251205,332.029999 218.587143,332.200470 
	C222.474411,332.696472 226.409744,332.815948 230.326218,333.083099 
	C230.403702,333.726318 230.481201,334.369568 230.558685,335.012787 
	C226.641220,335.486206 222.723755,335.959625 218.071091,336.521881 
	C218.623978,338.391632 218.951630,340.267273 219.721115,341.939606 
	C221.248932,345.260040 223.328903,348.354645 224.585434,351.762085 
	C225.463852,354.144196 225.921677,356.988068 225.501526,359.443268 
	C225.178131,361.333069 223.195419,362.938934 221.950546,364.671021 
	C221.799332,362.791260 221.686676,360.907410 221.485794,359.032959 
	C221.295898,357.260956 221.369568,355.348907 220.701462,353.761932 
	C219.026398,349.783020 216.699402,346.065002 215.186081,342.035034 
	C213.339844,337.118561 210.575424,336.917328 206.414413,339.091461 
	C205.104858,339.775696 203.147507,339.220154 201.486649,339.232056 
	C202.580688,337.859833 203.441711,336.137085 204.833099,335.212158 
	C206.278305,334.251404 208.236526,334.062347 210.550323,333.359711 
	C207.684616,321.731354 205.226501,310.107330 213.158630,299.109589 
z"/>
<path fill="#1A0500" opacity="1.000000" stroke="none" 
	d="
M245.210144,334.117279 
	C245.940414,332.356140 246.867477,330.554352 246.504593,329.067413 
	C244.444962,320.628021 243.693130,312.270050 247.181824,304.046906 
	C250.889160,295.308380 258.298889,292.448761 266.811890,296.609863 
	C268.445923,297.408600 269.492554,299.409088 270.810181,300.855164 
	C270.419739,301.262085 270.029297,301.668976 269.638855,302.075867 
	C268.155212,301.442139 266.678497,300.791504 265.186707,300.177551 
	C258.682587,297.500824 254.636490,298.997803 251.846375,305.369446 
	C248.320023,313.422394 248.603958,321.631561 251.685822,329.704285 
	C252.136887,330.885803 254.149796,331.976166 255.574738,332.183746 
	C259.454407,332.748718 263.406250,332.818024 267.329468,333.083771 
	C267.397766,333.726410 267.466095,334.369080 267.534393,335.011719 
	C263.621124,335.485809 259.707825,335.959930 254.837509,336.549988 
	C255.660263,338.786743 256.308746,340.877441 257.186310,342.867126 
	C258.996490,346.971191 261.106842,350.952972 262.711365,355.131866 
	C263.250061,356.534943 263.053894,358.571716 262.429718,359.980347 
	C261.657471,361.723145 260.090057,363.113525 258.866211,364.656158 
	C258.700623,362.908600 258.566376,361.157379 258.361359,359.414459 
	C258.116272,357.330841 258.221924,355.084442 257.447327,353.209442 
	C255.733597,349.061218 253.395798,345.173157 251.631592,341.042725 
	C250.103806,337.465912 248.082993,336.953674 244.647324,338.531952 
	C242.838165,339.363098 240.555695,342.962646 238.683746,338.962067 
	C238.418930,338.396088 241.709320,336.131134 243.404160,334.712280 
	C243.760345,334.414062 244.336426,334.378571 245.210144,334.117279 
z"/>
<path fill="#190500" opacity="1.000000" stroke="none" 
	d="
M145.816925,363.861053 
	C140.357239,367.111938 134.894455,369.089630 128.919540,367.239502 
	C127.570549,366.821777 126.746475,364.708893 125.680779,363.376343 
	C127.058067,363.355621 128.556519,362.969482 129.791214,363.378876 
	C134.565262,364.961823 143.573135,361.680511 146.096680,357.219543 
	C148.015076,353.828308 146.856827,351.086365 143.518692,350.015137 
	C139.135315,348.608521 134.474915,348.087402 129.970169,347.029907 
	C126.113487,346.124542 122.104553,345.455902 118.530891,343.859131 
	C113.876503,341.779388 112.758034,337.669373 115.740814,333.542633 
	C121.986214,324.902008 131.042923,320.463654 141.170898,318.157928 
	C142.284576,317.904419 145.072006,319.778076 145.029907,320.553772 
	C144.818436,324.451172 143.924484,328.311584 143.270218,332.184998 
	C142.629059,332.083496 141.987900,331.981995 141.346741,331.880493 
	C141.346741,328.677429 141.346741,325.474365 141.346741,321.791321 
	C131.771393,323.098602 124.934921,327.589691 119.714340,334.747223 
	C117.838509,337.319031 118.864853,339.369049 121.557968,340.165802 
	C126.155838,341.525970 130.872223,342.495178 135.557480,343.545410 
	C137.337540,343.944366 139.205063,343.970917 140.970078,344.415741 
	C145.192749,345.479889 149.813400,346.474152 151.021820,351.424866 
	C152.236221,356.400024 150.200745,360.555267 145.816925,363.861053 
z"/>
<path fill="#190500" opacity="1.000000" stroke="none" 
	d="
M198.508667,353.581726 
	C192.334381,359.756531 185.748276,364.117981 176.967545,360.655762 
	C174.166870,359.551514 171.859497,357.196167 169.141129,355.282837 
	C168.439636,356.193298 167.790283,357.412537 166.806137,358.227325 
	C165.237976,359.525665 163.446869,360.554718 161.750046,361.697662 
	C160.682617,359.902588 158.977997,358.213165 158.659729,356.293884 
	C157.385544,348.609467 159.997208,341.804047 164.757690,335.929413 
	C167.274429,332.823669 169.476669,333.508972 170.442673,337.216431 
	C171.525681,341.372955 172.610443,345.530945 173.578293,349.715149 
	C175.409393,357.631439 183.506851,360.632996 190.881714,355.660950 
	C194.341217,353.328644 197.129440,350.000671 200.221878,347.123901 
	C200.628082,347.323578 201.034271,347.523224 201.440475,347.722870 
	C200.536880,349.587921 199.633301,351.453003 198.508667,353.581726 
M163.152390,348.955688 
	C163.152390,350.852539 163.152390,352.749420 163.152390,354.646271 
	C168.410706,348.527130 169.077728,345.371918 166.669052,340.527466 
	C165.414337,343.404694 164.377029,345.783356 163.152390,348.955688 
z"/>
<path fill="#1C0500" opacity="1.000000" stroke="none" 
	d="
M353.662628,352.651245 
	C356.217926,353.405762 358.425842,353.972046 360.630554,354.537506 
	C359.151886,360.384857 352.419159,360.001343 348.084106,353.904419 
	C346.684662,351.936218 345.644165,349.712799 344.237946,347.253754 
	C341.900330,352.147095 339.757111,356.633545 337.457397,361.447632 
	C333.039734,357.081329 332.494843,337.019928 336.864716,332.283844 
	C336.864716,338.685669 336.864716,344.101166 336.864716,349.516693 
	C337.451538,349.607849 338.038361,349.699005 338.625183,349.790192 
	C339.585388,346.989441 340.335388,344.091309 341.573364,341.419250 
	C342.537445,339.338379 344.109039,337.538971 345.410675,335.614502 
	C346.254517,337.637207 347.017059,339.698730 347.959808,341.674225 
	C349.688873,345.297241 351.524231,348.869537 353.662628,352.651245 
z"/>
<path fill="#1A0500" opacity="1.000000" stroke="none" 
	d="
M308.566193,346.625763 
	C308.790924,344.095398 308.503448,341.665955 309.461121,339.919220 
	C310.854980,337.376923 313.441559,333.257935 314.994812,333.480133 
	C318.662964,334.004822 322.491608,336.423706 322.739014,341.114380 
	C322.919220,344.530640 323.238525,348.265259 322.078705,351.319824 
	C321.206421,353.617065 318.076935,356.493652 315.966614,356.482178 
	C313.837585,356.470551 311.519073,353.396027 309.697968,351.302887 
	C308.836823,350.313080 308.942749,348.481873 308.566193,346.625763 
M313.307373,341.265778 
	C312.685089,345.388367 311.853516,349.558472 315.661865,353.160950 
	C319.401215,349.744049 319.417603,345.855804 318.685699,341.941254 
	C318.047760,338.529297 316.246887,337.785553 313.307373,341.265778 
z"/>
<path fill="#160400" opacity="1.000000" stroke="none" 
	d="
M291.944061,335.930145 
	C294.399567,336.228882 296.427002,336.530457 298.454468,336.832031 
	C298.496765,337.458191 298.539093,338.084351 298.581421,338.710480 
	C296.193054,339.125641 293.818207,339.766144 291.413574,339.910614 
	C285.821259,340.246643 284.336029,341.572784 284.406860,347.226990 
	C284.440002,349.872528 285.088684,352.507019 285.183319,355.156372 
	C285.238129,356.690460 284.746002,358.244080 284.387787,360.493683 
	C279.457642,355.540588 277.202942,342.687897 279.836945,338.153198 
	C280.292236,337.369354 281.165802,336.369629 281.922821,336.299713 
	C285.104706,336.005859 288.315674,336.027100 291.944061,335.930145 
z"/>
<path fill="#FF3705" opacity="1.000000" stroke="none" 
	d="
M248.428406,116.647041 
	C259.738159,135.401520 259.694336,152.578003 248.050095,168.527390 
	C244.578262,161.386810 238.904938,155.687943 239.796738,147.023010 
	C240.271957,142.405746 239.917221,137.698898 239.867447,133.033218 
	C239.835907,130.077728 240.371872,126.279488 235.982132,126.360748 
	C232.044586,126.433640 232.349289,129.965164 232.338867,132.815842 
	C232.324219,136.815384 231.897354,140.874435 232.427963,144.802521 
	C233.606903,153.529922 229.178955,160.066452 224.868011,166.893951 
	C209.118042,146.077301 217.645081,120.252617 237.352737,102.255394 
	C241.001297,106.979370 244.616333,111.659958 248.428406,116.647041 
z"/>
<path fill="#FF3705" opacity="1.000000" stroke="none" 
	d="
M255.206406,232.065460 
	C257.359802,251.255478 247.397308,264.750366 235.926682,277.734009 
	C215.005325,258.833984 208.349670,232.601013 224.401886,211.948166 
	C228.011093,219.359451 233.601349,225.513901 232.444260,234.545273 
	C231.835388,239.297729 232.017700,244.228027 232.521393,249.006485 
	C232.706253,250.760147 234.847366,252.307617 236.096130,253.949127 
	C237.351883,252.333679 239.527084,250.805710 239.690659,249.086349 
	C240.177643,243.967941 240.327087,238.725479 239.776520,233.621216 
	C238.885712,225.362671 243.763565,219.660660 247.208954,213.266800 
	C247.768997,213.181900 248.329025,213.097000 248.889053,213.012085 
	C250.978592,219.222397 253.068130,225.432709 255.206406,232.065460 
z"/>
<path fill="#FF3504" opacity="1.000000" stroke="none" 
	d="
M286.168640,212.882126 
	C295.234070,224.699554 297.459015,238.109833 297.770325,252.729507 
	C286.087952,252.424042 275.060669,250.954361 264.877045,245.579834 
	C263.883911,245.055710 262.924652,243.222946 263.014404,242.081360 
	C264.071289,228.642319 259.476196,216.889587 252.484543,205.857880 
	C259.766205,198.596939 264.003448,197.588272 272.519958,202.450424 
	C277.350922,205.208466 281.490326,209.177795 286.168640,212.882126 
z"/>
<path fill="#FF3503" opacity="1.000000" stroke="none" 
	d="
M209.185699,142.024887 
	C209.113815,154.413559 213.759140,164.771988 219.967270,174.548019 
	C211.534790,182.055099 208.374146,182.389252 198.672867,177.460693 
	C189.114883,172.604996 182.516449,164.981934 179.337708,155.014709 
	C176.603027,146.439926 175.287567,137.412521 173.344589,128.585266 
	C173.895508,128.011047 174.446426,127.436829 174.997360,126.862617 
	C182.230103,127.994720 189.484619,129.007858 196.683380,130.325607 
	C199.093292,130.766769 201.313675,132.158005 203.703659,132.811539 
	C208.308182,134.070633 210.368423,136.755600 209.185699,142.024887 
z"/>
<path fill="#FF3504" opacity="1.000000" stroke="none" 
	d="
M295.798462,150.531204 
	C291.715302,164.090134 284.644501,174.567123 271.343750,180.031982 
	C267.035461,181.802139 263.266052,182.466766 259.346588,179.313538 
	C257.569122,177.883591 255.384750,176.959457 253.092621,175.637238 
	C254.863892,172.428223 256.587616,169.461945 258.163910,166.419312 
	C262.444946,158.155853 264.721466,149.424164 264.403259,140.040756 
	C264.354095,138.590958 264.770721,136.289246 265.726257,135.770203 
	C275.836670,130.278320 286.776398,128.431885 299.378296,128.606766 
	C298.159241,136.220764 297.044434,143.183640 295.798462,150.531204 
z"/>
<path fill="#FF3504" opacity="1.000000" stroke="none" 
	d="
M208.692535,228.866028 
	C208.388596,232.774017 207.843094,236.279037 208.062988,239.735397 
	C208.250992,242.690872 207.370773,244.275375 204.691986,245.487320 
	C194.970505,249.885605 184.711334,251.335129 174.246857,251.771835 
	C169.311493,231.992172 185.336975,204.056732 204.499329,198.877991 
	C206.063492,198.455261 208.117126,198.746078 209.620285,199.422852 
	C212.783051,200.846756 215.731171,202.747391 218.185211,204.125458 
	C214.967606,212.447037 211.875320,220.444504 208.692535,228.866028 
z"/>
<path fill="#FF3705" opacity="1.000000" stroke="none" 
	d="
M239.909485,210.851593 
	C238.661728,213.017670 237.598923,214.869064 235.698792,218.179108 
	C230.888290,204.325073 222.597687,194.990005 208.810593,190.331284 
	C221.957489,185.116745 230.986572,176.509827 235.993179,162.987137 
	C241.224747,176.268631 250.043671,185.257416 264.502930,189.825897 
	C253.912659,195.680969 243.426865,199.100571 239.909485,210.851593 
z"/>
<path fill="#FF3704" opacity="1.000000" stroke="none" 
	d="
M166.610901,175.481445 
	C167.951294,174.733627 168.964966,174.155884 170.016266,173.657547 
	C177.787003,169.973953 177.624008,170.159836 183.970291,175.960648 
	C187.844589,179.501938 192.321991,182.383453 197.538406,186.324249 
	C191.663757,186.324249 186.660400,186.323639 181.657059,186.324646 
	C180.325241,186.324921 178.992477,186.299194 177.661804,186.339630 
	C175.052231,186.418884 172.314301,186.663177 172.327179,190.109741 
	C172.339600,193.439377 174.840927,193.959869 177.589218,193.941574 
	C183.188431,193.904282 188.788040,193.930405 194.527878,193.930405 
	C189.304260,198.459915 184.444855,202.789078 179.418930,206.915421 
	C178.602753,207.585526 176.877274,207.834427 175.862152,207.470016 
	C165.370392,203.703506 156.332443,197.691376 147.770508,188.742004 
	C154.184830,184.223633 160.243225,179.955963 166.610901,175.481445 
z"/>
<path fill="#FF3704" opacity="1.000000" stroke="none" 
	d="
M282.487030,182.556564 
	C285.539703,179.943008 288.574371,177.791336 290.975769,175.078964 
	C293.221985,172.541885 295.234680,172.118896 298.312958,173.395584 
	C307.834747,177.344650 316.121246,183.023575 323.897675,190.717224 
	C315.501312,198.919922 306.350647,205.480072 295.201263,208.952866 
	C294.322876,209.226456 292.874359,208.758499 292.107666,208.128143 
	C286.428162,203.458405 280.854309,198.660141 275.280426,193.930420 
	C281.378937,193.930420 287.961853,193.898590 294.544220,193.945709 
	C297.272919,193.965225 299.841003,193.547089 299.946808,190.240036 
	C300.055298,186.849411 297.410309,186.354874 294.731018,186.340546 
	C289.322906,186.311615 283.914490,186.331924 278.230103,185.293488 
	C279.550934,184.453568 280.871765,183.613632 282.487030,182.556564 
z"/>
<path fill="#DF2900" opacity="1.000000" stroke="none" 
	d="
M163.246063,348.558838 
	C164.377029,345.783356 165.414337,343.404694 166.669052,340.527466 
	C169.077728,345.371918 168.410706,348.527130 163.152390,354.646271 
	C163.152390,352.749420 163.152390,350.852539 163.246063,348.558838 
z"/>
<path fill="#E72B00" opacity="1.000000" stroke="none" 
	d="
M313.478516,340.879089 
	C316.246887,337.785553 318.047760,338.529297 318.685699,341.941254 
	C319.417603,345.855804 319.401215,349.744049 315.661865,353.160950 
	C311.853516,349.558472 312.685089,345.388367 313.478516,340.879089 
z"/>
</svg>